# xmcd
#
# Track frame offsets: 
#        150
#        19013
#        44269
#        63743
#        84497
#        107895
#        126993
#        145183
#        160246
#        178101
#        200384
#        236773
#
# Disc length: 3399 seconds
#
# Revision: 0
# Processed by: cddbd v1.5.2PL0 Copyright (c) Steve Scherf et al.
# Submitted via: ExactAudioCopy v0.99pb5
#
DISCID=a90d450c
DTITLE=East River Blues Band - High Tide
DYEAR=2006
DGENRE=Blues
TTITLE0=Closing Time
TTITLE1=Lovin' Girl
TTITLE2=Independent Woman
TTITLE3=Blue Midnight 
TTITLE4=East River Rats
TTITLE5=Police Dog Blues
TTITLE6=Running Home To Brooklyn
TTITLE7=Subway Blues
TTITLE8=Hasta La Vista
TTITLE9=Candy Store
TTITLE10=Bleeding
TTITLE11=Fiona's Shuffle
EXTD=
EXTT0=
EXTT1=
EXTT2=
EXTT3=
EXTT4=
EXTT5=
EXTT6=
EXTT7=
EXTT8=
EXTT9=
EXTT10=
EXTT11=
PLAYORDER=
